<?xml version="1.0" encoding="UTF-8"?>
<svg width="512px" height="512px" viewBox="0 0 512 512" version="1.1" xmlns="http://www.w3.org/2000/svg" xmlns:xlink="http://www.w3.org/1999/xlink">
    <!-- Generator: Sketch 53.2 (72643) - https://sketchapp.com -->
    <title>match box 6</title>
    <desc>Created with Sketch.</desc>
    <g id="match-box-6" stroke="none" stroke-width="1" fill="none" fill-rule="evenodd">
        <g id="Group" transform="translate(64.000000, 123.000000)">
            <rect id="Rectangle-Copy" stroke="#FBC74B" stroke-width="10" fill="#7B3916" x="17" y="5" width="146" height="230"></rect>
            <g id="match-stick" transform="translate(24.000000, 16.000000)">
                <rect id="Rectangle" fill="#FBC74B" x="4" y="17" width="21" height="136"></rect>
                <ellipse id="Oval" fill="#FF8849" cx="15" cy="17.5" rx="15" ry="17.5"></ellipse>
            </g>
            <g id="match-stick-copy" transform="translate(58.000000, 16.000000)">
                <rect id="Rectangle" fill="#FBC74B" x="4" y="17" width="21" height="136"></rect>
                <ellipse id="Oval" fill="#FF8849" cx="15" cy="17.5" rx="15" ry="17.5"></ellipse>
            </g>
            <g id="match-stick-copy-2" transform="translate(92.000000, 16.000000)">
                <rect id="Rectangle" fill="#FBC74B" x="4" y="17" width="21" height="136"></rect>
                <ellipse id="Oval" fill="#FF8849" cx="15" cy="17.5" rx="15" ry="17.5"></ellipse>
            </g>
            <g id="match-stick-copy-3" transform="translate(126.000000, 16.000000)">
                <rect id="Rectangle" fill="#FBC74B" x="4" y="17" width="21" height="136"></rect>
                <ellipse id="Oval" fill="#FF8849" cx="15" cy="17.5" rx="15" ry="17.5"></ellipse>
            </g>
            <rect id="Rectangle" stroke="#FF8849" stroke-width="20" fill="#FBC74B" x="10" y="69" width="160" height="220"></rect>
        </g>
        <g id="flaming-match-1" transform="translate(268.056275, 153.000000)">
            <g id="match-stick-copy-5" transform="translate(12.943725, 54.000000)">
                <rect id="Rectangle" fill="#FBC74B" x="4" y="17" width="21" height="190" rx="5"></rect>
                <ellipse id="Oval" fill="#7B3916" cx="15" cy="17.5" rx="15" ry="17.5"></ellipse>
            </g>
            <path d="M17.2510321,24.728228 C16.7497919,27.5819789 16.083712,29.5285164 14.6852183,31.268345 C13.5815174,32.6414299 12.2073424,33.6975087 10.6607619,34.2717767 C10.6892195,34.5791183 10.7210256,34.9212113 10.7565194,35.3030951 C11.0047541,37.9738925 11.127732,40.1698249 11.127732,42.8828125 C11.127732,47.570105 10.4781071,50.4620688 8.958257,54.0699148 C8.92482146,54.1492846 8.53768583,55.0586815 8.4345989,55.3070077 C7.71126088,57.0494569 7.34567433,58.3745196 7.08246073,60.6776386 C6.53323812,65.4833364 8.90502587,69.5687998 12.7807449,71.8506321 C14.8515017,73.0697916 16.4639448,74.0965162 17.7907696,75.0194953 C18.1669343,75.2811668 18.6913442,75.6632733 19.1159902,75.9764005 C19.2434576,75.990573 19.4206119,76.0101263 19.7150286,76.0426233 C20.2960022,76.1070308 22.706367,76.4409501 23.0709284,76.4878915 C26.1395745,76.8830147 28.604806,77.0237324 30.8764548,76.8435221 C34.263697,76.5748116 36.2717009,75.6604469 37.1741533,74.2011144 C37.2792196,74.0312145 37.6661771,73.4105872 37.7361105,73.2979158 C37.9606204,72.9362029 38.1449706,72.6349144 38.3262646,72.3319222 C38.7823156,71.5697355 39.1827062,70.8553984 39.5568452,70.1243941 C41.2814863,66.7547377 42.2429293,63.4116465 42.2429293,59.8828125 C42.2429293,58.055449 41.0131405,56.088492 38.1115547,53.4277711 C37.649201,53.003798 37.1587115,52.5728218 36.5165909,52.0225152 C36.488537,51.9984727 35.2047625,50.9044079 34.8415166,50.5896315 C33.223753,49.1877333 32.2257566,48.2094108 31.3464149,47.0005618 C30.9772557,46.493071 30.3791248,45.7996321 29.4059538,44.750999 C29.5351533,44.8902169 27.0054215,42.1965643 26.2279048,41.3385671 C22.2156584,36.9110139 19.7091638,33.2377494 18.41585,28.870434 C18.4836286,29.0993118 17.9870405,27.3219153 17.2510321,24.728228 Z M31.8479091,24.9229841 C31.8463128,24.9176922 31.844524,24.9117169 31.8425405,24.9050508 C31.8442129,24.9106637 31.8460556,24.9168219 31.8479091,24.9229841 Z M31.8425405,24.9050508 C31.8416081,24.9019171 31.8406327,24.8986307 31.8396141,24.895191 C31.8405336,24.8982961 31.8414559,24.9014023 31.8423809,24.9045096 Z" id="flame" stroke="#FF8849" stroke-width="14" fill="#FBC74B" opacity="0.936337426"></path>
        </g>
        <g id="flaming-match-1-copy" transform="translate(309.000000, 153.000000)">
            <g id="match-stick-copy-5" transform="translate(12.943725, 54.000000)">
                <rect id="Rectangle" fill="#FBC74B" x="4" y="17" width="21" height="190" rx="5"></rect>
                <ellipse id="Oval" fill="#7B3916" cx="15" cy="17.5" rx="15" ry="17.5"></ellipse>
            </g>
            <path d="M17.2510321,24.728228 C16.7497919,27.5819789 16.083712,29.5285164 14.6852183,31.268345 C13.5815174,32.6414299 12.2073424,33.6975087 10.6607619,34.2717767 C10.6892195,34.5791183 10.7210256,34.9212113 10.7565194,35.3030951 C11.0047541,37.9738925 11.127732,40.1698249 11.127732,42.8828125 C11.127732,47.570105 10.4781071,50.4620688 8.958257,54.0699148 C8.92482146,54.1492846 8.53768583,55.0586815 8.4345989,55.3070077 C7.71126088,57.0494569 7.34567433,58.3745196 7.08246073,60.6776386 C6.53323812,65.4833364 8.90502587,69.5687998 12.7807449,71.8506321 C14.8515017,73.0697916 16.4639448,74.0965162 17.7907696,75.0194953 C18.1669343,75.2811668 18.6913442,75.6632733 19.1159902,75.9764005 C19.2434576,75.990573 19.4206119,76.0101263 19.7150286,76.0426233 C20.2960022,76.1070308 22.706367,76.4409501 23.0709284,76.4878915 C26.1395745,76.8830147 28.604806,77.0237324 30.8764548,76.8435221 C34.263697,76.5748116 36.2717009,75.6604469 37.1741533,74.2011144 C37.2792196,74.0312145 37.6661771,73.4105872 37.7361105,73.2979158 C37.9606204,72.9362029 38.1449706,72.6349144 38.3262646,72.3319222 C38.7823156,71.5697355 39.1827062,70.8553984 39.5568452,70.1243941 C41.2814863,66.7547377 42.2429293,63.4116465 42.2429293,59.8828125 C42.2429293,58.055449 41.0131405,56.088492 38.1115547,53.4277711 C37.649201,53.003798 37.1587115,52.5728218 36.5165909,52.0225152 C36.488537,51.9984727 35.2047625,50.9044079 34.8415166,50.5896315 C33.223753,49.1877333 32.2257566,48.2094108 31.3464149,47.0005618 C30.9772557,46.493071 30.3791248,45.7996321 29.4059538,44.750999 C29.5351533,44.8902169 27.0054215,42.1965643 26.2279048,41.3385671 C22.2156584,36.9110139 19.7091638,33.2377494 18.41585,28.870434 C18.4836286,29.0993118 17.9870405,27.3219153 17.2510321,24.728228 Z M31.8479091,24.9229841 C31.8463128,24.9176922 31.844524,24.9117169 31.8425405,24.9050508 C31.8442129,24.9106637 31.8460556,24.9168219 31.8479091,24.9229841 Z M31.8425405,24.9050508 C31.8416081,24.9019171 31.8406327,24.8986307 31.8396141,24.895191 C31.8405336,24.8982961 31.8414559,24.9014023 31.8423809,24.9045096 Z" id="flame" stroke="#FF8849" stroke-width="14" fill="#FBC74B" opacity="0.936337426"></path>
        </g>
        <g id="flaming-match-1-copy-2" transform="translate(436.000000, 153.000000)">
            <g id="match-stick-copy-5" transform="translate(12.943725, 54.000000)">
                <rect id="Rectangle" fill="#FBC74B" x="4" y="17" width="21" height="190" rx="5"></rect>
                <ellipse id="Oval" fill="#7B3916" cx="15" cy="17.5" rx="15" ry="17.5"></ellipse>
            </g>
            <path d="M17.2510321,24.728228 C16.7497919,27.5819789 16.083712,29.5285164 14.6852183,31.268345 C13.5815174,32.6414299 12.2073424,33.6975087 10.6607619,34.2717767 C10.6892195,34.5791183 10.7210256,34.9212113 10.7565194,35.3030951 C11.0047541,37.9738925 11.127732,40.1698249 11.127732,42.8828125 C11.127732,47.570105 10.4781071,50.4620688 8.958257,54.0699148 C8.92482146,54.1492846 8.53768583,55.0586815 8.4345989,55.3070077 C7.71126088,57.0494569 7.34567433,58.3745196 7.08246073,60.6776386 C6.53323812,65.4833364 8.90502587,69.5687998 12.7807449,71.8506321 C14.8515017,73.0697916 16.4639448,74.0965162 17.7907696,75.0194953 C18.1669343,75.2811668 18.6913442,75.6632733 19.1159902,75.9764005 C19.2434576,75.990573 19.4206119,76.0101263 19.7150286,76.0426233 C20.2960022,76.1070308 22.706367,76.4409501 23.0709284,76.4878915 C26.1395745,76.8830147 28.604806,77.0237324 30.8764548,76.8435221 C34.263697,76.5748116 36.2717009,75.6604469 37.1741533,74.2011144 C37.2792196,74.0312145 37.6661771,73.4105872 37.7361105,73.2979158 C37.9606204,72.9362029 38.1449706,72.6349144 38.3262646,72.3319222 C38.7823156,71.5697355 39.1827062,70.8553984 39.5568452,70.1243941 C41.2814863,66.7547377 42.2429293,63.4116465 42.2429293,59.8828125 C42.2429293,58.055449 41.0131405,56.088492 38.1115547,53.4277711 C37.649201,53.003798 37.1587115,52.5728218 36.5165909,52.0225152 C36.488537,51.9984727 35.2047625,50.9044079 34.8415166,50.5896315 C33.223753,49.1877333 32.2257566,48.2094108 31.3464149,47.0005618 C30.9772557,46.493071 30.3791248,45.7996321 29.4059538,44.750999 C29.5351533,44.8902169 27.0054215,42.1965643 26.2279048,41.3385671 C22.2156584,36.9110139 19.7091638,33.2377494 18.41585,28.870434 C18.4836286,29.0993118 17.9870405,27.3219153 17.2510321,24.728228 Z M31.8479091,24.9229841 C31.8463128,24.9176922 31.844524,24.9117169 31.8425405,24.9050508 C31.8442129,24.9106637 31.8460556,24.9168219 31.8479091,24.9229841 Z M31.8425405,24.9050508 C31.8416081,24.9019171 31.8406327,24.8986307 31.8396141,24.895191 C31.8405336,24.8982961 31.8414559,24.9014023 31.8423809,24.9045096 Z" id="flame" stroke="#FF8849" stroke-width="14" fill="#FBC74B" opacity="0.936337426"></path>
        </g>
        <g id="flaming-match-1-copy-3" transform="translate(394.000000, 153.000000)">
            <g id="match-stick-copy-5" transform="translate(12.943725, 54.000000)">
                <rect id="Rectangle" fill="#FBC74B" x="4" y="17" width="21" height="190" rx="5"></rect>
                <ellipse id="Oval" fill="#7B3916" cx="15" cy="17.5" rx="15" ry="17.5"></ellipse>
            </g>
            <path d="M17.2510321,24.728228 C16.7497919,27.5819789 16.083712,29.5285164 14.6852183,31.268345 C13.5815174,32.6414299 12.2073424,33.6975087 10.6607619,34.2717767 C10.6892195,34.5791183 10.7210256,34.9212113 10.7565194,35.3030951 C11.0047541,37.9738925 11.127732,40.1698249 11.127732,42.8828125 C11.127732,47.570105 10.4781071,50.4620688 8.958257,54.0699148 C8.92482146,54.1492846 8.53768583,55.0586815 8.4345989,55.3070077 C7.71126088,57.0494569 7.34567433,58.3745196 7.08246073,60.6776386 C6.53323812,65.4833364 8.90502587,69.5687998 12.7807449,71.8506321 C14.8515017,73.0697916 16.4639448,74.0965162 17.7907696,75.0194953 C18.1669343,75.2811668 18.6913442,75.6632733 19.1159902,75.9764005 C19.2434576,75.990573 19.4206119,76.0101263 19.7150286,76.0426233 C20.2960022,76.1070308 22.706367,76.4409501 23.0709284,76.4878915 C26.1395745,76.8830147 28.604806,77.0237324 30.8764548,76.8435221 C34.263697,76.5748116 36.2717009,75.6604469 37.1741533,74.2011144 C37.2792196,74.0312145 37.6661771,73.4105872 37.7361105,73.2979158 C37.9606204,72.9362029 38.1449706,72.6349144 38.3262646,72.3319222 C38.7823156,71.5697355 39.1827062,70.8553984 39.5568452,70.1243941 C41.2814863,66.7547377 42.2429293,63.4116465 42.2429293,59.8828125 C42.2429293,58.055449 41.0131405,56.088492 38.1115547,53.4277711 C37.649201,53.003798 37.1587115,52.5728218 36.5165909,52.0225152 C36.488537,51.9984727 35.2047625,50.9044079 34.8415166,50.5896315 C33.223753,49.1877333 32.2257566,48.2094108 31.3464149,47.0005618 C30.9772557,46.493071 30.3791248,45.7996321 29.4059538,44.750999 C29.5351533,44.8902169 27.0054215,42.1965643 26.2279048,41.3385671 C22.2156584,36.9110139 19.7091638,33.2377494 18.41585,28.870434 C18.4836286,29.0993118 17.9870405,27.3219153 17.2510321,24.728228 Z M31.8479091,24.9229841 C31.8463128,24.9176922 31.844524,24.9117169 31.8425405,24.9050508 C31.8442129,24.9106637 31.8460556,24.9168219 31.8479091,24.9229841 Z M31.8425405,24.9050508 C31.8416081,24.9019171 31.8406327,24.8986307 31.8396141,24.895191 C31.8405336,24.8982961 31.8414559,24.9014023 31.8423809,24.9045096 Z" id="flame" stroke="#FF8849" stroke-width="14" fill="#FBC74B" opacity="0.936337426"></path>
        </g>
        <g id="flaming-match-1-copy-4" transform="translate(352.000000, 153.000000)">
            <g id="match-stick-copy-5" transform="translate(12.943725, 54.000000)">
                <rect id="Rectangle" fill="#FBC74B" x="4" y="17" width="21" height="190" rx="5"></rect>
                <ellipse id="Oval" fill="#7B3916" cx="15" cy="17.5" rx="15" ry="17.5"></ellipse>
            </g>
            <path d="M17.2510321,24.728228 C16.7497919,27.5819789 16.083712,29.5285164 14.6852183,31.268345 C13.5815174,32.6414299 12.2073424,33.6975087 10.6607619,34.2717767 C10.6892195,34.5791183 10.7210256,34.9212113 10.7565194,35.3030951 C11.0047541,37.9738925 11.127732,40.1698249 11.127732,42.8828125 C11.127732,47.570105 10.4781071,50.4620688 8.958257,54.0699148 C8.92482146,54.1492846 8.53768583,55.0586815 8.4345989,55.3070077 C7.71126088,57.0494569 7.34567433,58.3745196 7.08246073,60.6776386 C6.53323812,65.4833364 8.90502587,69.5687998 12.7807449,71.8506321 C14.8515017,73.0697916 16.4639448,74.0965162 17.7907696,75.0194953 C18.1669343,75.2811668 18.6913442,75.6632733 19.1159902,75.9764005 C19.2434576,75.990573 19.4206119,76.0101263 19.7150286,76.0426233 C20.2960022,76.1070308 22.706367,76.4409501 23.0709284,76.4878915 C26.1395745,76.8830147 28.604806,77.0237324 30.8764548,76.8435221 C34.263697,76.5748116 36.2717009,75.6604469 37.1741533,74.2011144 C37.2792196,74.0312145 37.6661771,73.4105872 37.7361105,73.2979158 C37.9606204,72.9362029 38.1449706,72.6349144 38.3262646,72.3319222 C38.7823156,71.5697355 39.1827062,70.8553984 39.5568452,70.1243941 C41.2814863,66.7547377 42.2429293,63.4116465 42.2429293,59.8828125 C42.2429293,58.055449 41.0131405,56.088492 38.1115547,53.4277711 C37.649201,53.003798 37.1587115,52.5728218 36.5165909,52.0225152 C36.488537,51.9984727 35.2047625,50.9044079 34.8415166,50.5896315 C33.223753,49.1877333 32.2257566,48.2094108 31.3464149,47.0005618 C30.9772557,46.493071 30.3791248,45.7996321 29.4059538,44.750999 C29.5351533,44.8902169 27.0054215,42.1965643 26.2279048,41.3385671 C22.2156584,36.9110139 19.7091638,33.2377494 18.41585,28.870434 C18.4836286,29.0993118 17.9870405,27.3219153 17.2510321,24.728228 Z M31.8479091,24.9229841 C31.8463128,24.9176922 31.844524,24.9117169 31.8425405,24.9050508 C31.8442129,24.9106637 31.8460556,24.9168219 31.8479091,24.9229841 Z M31.8425405,24.9050508 C31.8416081,24.9019171 31.8406327,24.8986307 31.8396141,24.895191 C31.8405336,24.8982961 31.8414559,24.9014023 31.8423809,24.9045096 Z" id="flame" stroke="#FF8849" stroke-width="14" fill="#FBC74B" opacity="0.936337426"></path>
        </g>
    </g>
</svg>